<svg width="179" height="100" viewBox="0 0 179 100" fill="none" xmlns="http://www.w3.org/2000/svg">
<path d="M34.4536 37.4942C35.6625 37.0111 35.5416 34.8372 35.5416 34.8372C35.5416 34.8372 37.0527 34.7164 37.5363 34.0522C38.0803 33.3879 38.3221 32.4821 39.9541 31.8783C41.5257 31.3348 40.8003 30.0667 41.5861 29.5232C42.3719 28.9797 43.4599 29.1005 43.883 28.557C44.3061 28.0135 44.1248 26.9266 44.7897 26.5039C45.4546 26.0812 47.3888 26.0812 48.1142 26.685C48.8395 27.2285 48.7186 27.7116 48.779 28.4362C48.779 29.1609 49.4439 29.8855 49.7462 30.1875C50.0484 30.5498 50.0484 31.214 50.2297 32.8445C50.3506 34.4749 50.7133 36.4073 49.9275 37.4942C49.2022 38.5208 47.3888 38.9435 46.5426 38.4C45.6964 37.8565 44.6688 35.6826 44.5479 34.6561C44.427 33.6295 44.0039 33.5087 44.0643 32.6633C44.1248 31.8179 44.1852 31.4556 44.0039 31.3952C43.7621 31.3348 43.883 32.1198 43.5808 32.8445C43.2786 33.5691 43.7017 34.5957 43.3995 35.3203C43.0972 36.0449 42.1301 35.8034 41.8883 36.1657C41.6465 36.528 41.5861 37.1923 41.1025 37.5546C40.4981 37.8565 40.8003 38.0377 40.8608 38.6416C40.9212 39.185 40.8003 39.8493 40.9817 40.272C41.163 40.6947 41.2839 40.9362 41.7674 40.8759C42.251 40.8759 42.4928 40.5135 42.1906 39.9097C41.8883 39.3662 42.1906 38.7623 42.6741 38.5208C43.1577 38.2792 43.339 37.7962 43.6412 38.3396C43.883 38.8831 43.7017 40.0908 43.9435 40.272C44.1248 40.4532 43.9435 41.2986 44.3666 41.359C44.7897 41.4193 45.0315 40.8759 45.3941 40.6343C45.7568 40.3928 45.3941 39.6681 45.9986 39.6681C46.5426 39.6681 46.7239 39.8493 47.147 39.6681C47.5701 39.4266 47.5097 39.9097 48.1746 39.9097C48.8395 39.9097 49.5044 39.5474 49.8671 39.7889C50.2297 40.0304 50.2902 40.6947 50.1693 40.9966C50.0484 41.2986 49.6253 42.0232 49.8671 42.0836C50.1088 42.144 50.3506 41.359 50.7133 41.1778C51.076 40.9966 51.9826 40.4532 51.9826 40.0908C51.9826 39.7285 51.8013 39.3662 52.1035 39.0039C52.4662 38.6416 52.7684 38.7019 53.3729 38.2189C53.9169 37.7358 53.3124 36.9507 53.6751 36.6488C54.0378 36.4073 54.2795 37.5546 54.7631 37.615C55.2467 37.6754 55.4884 38.0981 55.3071 38.6416C55.1258 39.185 54.9444 40.2116 54.9444 40.2116C54.9444 40.2116 53.6751 39.3662 53.252 39.6681C52.8289 39.9701 52.9497 40.2116 52.8893 40.7551C52.8893 41.2986 52.6475 41.6609 53.252 42.0232C53.8564 42.3855 54.2795 42.0232 54.7026 41.7213C55.1258 41.4193 55.2467 40.9362 55.6698 41.1778C56.0324 41.4193 56.2742 41.1778 56.6973 41.359C57.1809 41.5401 58.2085 40.9966 58.9942 41.2986C59.78 41.6005 60.0218 41.842 59.8405 42.144C59.7196 42.3855 60.2031 42.3855 60.3845 42.144C60.5658 41.9024 60.2031 41.359 60.9889 41.4797C61.7747 41.6005 61.956 41.9024 61.5934 42.2044C61.2307 42.5667 61.2307 42.9894 60.6867 42.8686C60.1427 42.7478 60.6262 43.5329 61.1098 43.4725C61.5934 43.4121 61.8351 43.4121 62.6209 43.4725C63.4067 43.5329 63.2254 43.8952 63.8298 44.016C64.4343 44.1367 64.5552 44.016 64.7365 44.016C64.9178 44.016 65.0387 44.0763 65.2201 43.8952C65.4014 43.714 65.7641 43.714 65.8245 43.8952C65.885 44.016 65.5223 44.3179 65.5827 44.5594C65.6432 44.801 65.1596 45.1029 65.5827 45.3445C66.0058 45.586 66.1267 45.1029 66.6103 45.1029C67.1543 45.1029 67.2147 44.5594 67.2147 44.016C67.2147 43.4725 67.2147 43.1102 67.517 43.1102C67.8192 43.1705 68.061 42.6875 68.4236 42.8082C68.8468 42.929 68.7863 43.5329 69.7534 44.0763C71.0228 44.7406 72.1712 45.8276 72.2317 45.8276C73.1988 46.371 73.3197 45.2237 73.6219 44.2575C73.8032 43.714 74.1659 43.2913 73.9241 42.9894C73.6824 42.7478 73.3801 42.8686 73.5615 42.6271C73.6824 42.3855 73.8637 42.4459 73.8032 42.2647C73.7428 42.0836 73.6219 41.9628 73.9846 41.6609C74.3472 41.359 75.0121 41.7817 75.7375 40.9362C76.4628 40.1512 76.765 39.4266 77.1277 39.0039C77.4299 38.5208 77.6113 38.7019 77.6717 38.8831C77.7322 39.0643 78.2157 39.0643 78.6388 39.1247C79.1224 39.185 79.6664 39.7889 79.6059 40.1512C79.6059 40.5135 79.3037 41.1778 78.9411 41.6609C78.5784 42.0836 78.0344 42.5063 77.9739 42.8082L79.5455 42.144C79.8477 42.0232 80.3917 42.0232 80.7544 41.6609C81.1171 41.2986 81.1171 41.057 81.1171 40.6343C81.1171 40.1512 81.1775 40.0304 81.3589 39.9701C81.6006 39.9097 81.5402 40.1512 81.5402 40.4532C81.5402 40.6947 81.4798 41.4797 81.3589 41.7213L81.782 42.2647C82.0842 42.144 82.5678 42.2044 83.1722 42.0232C83.5953 41.9024 84.0789 41.842 84.3207 42.0836L85.2878 41.1174C85.4087 40.8155 85.4691 40.8759 85.2878 40.5739C85.1064 40.272 85.4087 40.3324 85.4691 40.1512C85.5295 39.9701 85.2878 40.0305 85.4691 39.7285C85.6504 39.4266 85.8922 39.2454 86.5571 39.2454C87.222 39.2454 87.3429 39.3662 88.1287 39.3662C88.9145 39.3662 89.2771 39.2454 89.7002 39.1247C90.1234 39.0039 90.1838 39.3662 90.4256 39.1247C90.6674 38.9435 90.8487 38.8227 90.486 38.5208C90.1234 38.2189 89.7607 37.9773 89.8816 37.7962C90.0025 37.5546 90.1234 37.9773 90.4256 37.9773C90.7278 37.9773 90.5465 37.7962 90.1234 37.3131C89.7003 36.83 89.7607 36.4676 90.0025 36.6488C90.3047 36.7696 90.4256 37.1923 90.6674 36.9507C90.9091 36.7092 91.8158 35.3807 92.1785 35.3203C92.5412 35.1995 92.6016 35.3807 92.9038 35.0788C93.2061 34.7768 93.2665 34.958 93.5083 35.0788C93.7501 35.1995 93.8105 34.8372 94.0523 34.7768C94.2941 34.7164 94.5963 34.7164 94.959 34.5957C95.2612 34.5353 94.959 34.3541 94.7776 34.3541C94.5963 34.3541 94.4754 34.1126 94.7172 33.9918C94.959 33.8106 95.0194 33.9918 95.2612 33.7503C95.4425 33.4483 95.6239 33.5691 95.9865 33.7503C96.2887 33.9314 96.5305 33.5691 96.6514 33.8106C96.7723 34.0522 96.6514 34.173 96.6514 34.173C96.6514 34.173 96.8932 34.2333 97.1954 34.173C97.3768 33.4483 98.223 33.6899 98.5252 33.1464L98.223 32.8445C98.5252 32.2406 99.0692 32.5425 99.6737 32.5425C99.0692 32.2406 99.0692 31.6971 99.3714 31.3952C99.3714 30.5498 99.9759 29.1005 101.124 29.1005C101.971 29.4024 100.822 29.9459 101.124 30.5498C101.427 30.2478 101.971 30.2478 102.273 30.2478C101.971 30.5498 101.971 31.0933 101.971 31.6971C102.575 30.5498 103.119 30.2478 104.267 29.9459C104.57 29.9459 105.114 30.7913 105.416 31.0933V30.7913C106.02 31.0933 106.564 31.6367 106.564 32.2406C106.262 32.8445 105.718 32.5425 105.416 31.9387C108.559 34.8372 103.421 37.3734 103.421 40.8759C103.421 40.5739 103.421 40.5739 103.421 40.272C104.57 41.1174 105.174 39.6681 106.02 39.1247C105.718 39.1247 105.416 39.4266 105.174 39.4266C104.932 39.4266 104.57 38.8227 104.872 38.5812C105.718 37.4338 106.625 39.4266 107.471 38.8831C107.773 38.5812 107.471 38.2792 107.169 38.2792C109.164 40.0304 111.219 37.1319 113.757 37.6754C112.911 38.2792 113.757 38.5208 114.06 38.8227C115.51 39.1247 117.505 38.5208 117.807 36.83C117.807 36.528 117.505 36.2261 117.203 35.9846C118.956 34.5353 121.494 34.5353 122.099 36.5884C122.099 36.5884 121.797 37.1923 121.797 37.4338C122.099 37.4338 122.099 37.1319 122.099 36.83C122.401 37.9773 123.247 38.5812 124.396 38.2792C123.247 35.3807 126.693 35.1391 128.989 33.9918C128.989 33.9918 127.539 34.8372 127.841 33.6899C128.143 33.3879 128.687 33.3879 128.989 33.086C128.687 32.7841 128.143 32.4821 128.385 31.9387C128.083 32.2406 128.083 32.2406 127.781 32.5425C128.083 30.2478 129.775 29.4024 131.528 27.6512C131.83 28.4966 130.682 28.4966 130.682 29.4024C130.984 29.1005 131.286 28.557 131.83 28.7986C131.528 29.1005 131.528 29.4024 131.528 29.644C132.677 28.4966 131.528 26.5039 133.523 26.2019C134.127 26.2019 133.825 26.8058 133.523 27.0474C133.825 26.7454 134.369 26.7454 135.034 26.8058C135.215 26.7454 135.215 26.4435 135.518 26.3227C135.759 26.2019 136.726 26.5643 136.726 26.5643C136.726 26.5643 137.15 26.3831 137.21 26.2623C137.27 26.1416 137.089 25.9 137.452 25.8396C137.814 25.7792 137.754 25.7189 137.754 25.1754C137.754 24.6319 138.298 24.028 138.721 23.4846C139.144 22.9411 139.87 22.458 140.534 22.2768C141.199 22.0957 141.743 22.2164 141.985 22.458C142.227 22.6995 142.166 23.0618 142.65 23.1222C143.134 23.1826 143.436 22.7599 143.738 22.8807C144.101 23.0015 144.04 22.8807 143.98 22.6391C143.919 22.3976 144.222 22.5788 144.282 22.5184C144.342 22.458 144.161 22.2164 144.161 21.7333C144.161 21.2503 144.463 20.9483 144.524 20.7672C144.584 20.5256 144.342 20.3445 144.524 20.2237C144.705 20.1029 144.886 20.2237 145.128 19.9821C145.37 19.7406 145.914 18.8348 146.156 18.6536C146.398 18.4725 146.337 18.1705 146.216 17.8082C146.095 17.3855 145.974 17.2044 145.974 17.2044C145.068 16.4797 146.821 16.7817 146.518 15.9966C146.639 15.9362 146.942 16.359 147.002 16.5401C147.062 16.7213 146.579 17.0232 146.518 17.144C146.458 17.2647 146.76 17.2648 146.942 17.3251C147.123 17.3855 147.123 17.6271 147.365 17.5667C147.606 17.4459 147.546 17.144 148.03 17.0232C148.513 16.9024 148.453 17.2648 148.876 16.9628C149.299 16.7213 149.299 16.7213 149.118 16.2382C148.936 15.7551 148.755 15.3324 148.211 15.4532C147.667 15.5135 147.606 15.6343 147.365 15.6947C147.123 15.3324 146.518 15.3324 146.216 15.0305C149.662 10.743 154.255 6.69712 159.454 5.24784C158.849 5.24784 158.607 5.24784 158.003 5.24784C159.454 4.1005 161.146 4.94591 162.597 4.64398C162.295 4.64398 161.751 4.04011 161.751 4.94591C162.053 4.64398 162.355 4.64398 162.597 4.64398C162.295 5.24784 161.751 4.94591 161.448 4.94591C162.295 4.94591 162.899 4.94591 163.745 4.94591H163.443C163.745 4.94591 164.289 4.94591 164.591 4.64398C163.443 5.79132 162.597 6.63673 160.844 6.63673C160.542 6.63673 160.542 7.48214 160.36 7.84446C160.421 8.02562 160.542 8.62948 160.36 8.87103C160.179 9.11258 159.998 9.17296 159.816 9.05219C159.635 8.93142 159.514 9.05219 159.333 9.05219C159.151 9.05219 159.031 9.29374 158.849 9.11258C158.668 8.93142 158.668 8.62948 158.366 8.5691C158.063 8.50871 157.943 8.44832 158.184 8.68987C158.366 8.87103 158.668 9.05219 158.607 9.17296C158.547 9.29374 158.426 9.05219 158.184 9.11258C157.943 9.17296 158.003 9.35412 158.245 9.35412C158.487 9.35412 158.487 9.53528 158.487 9.77683C158.487 10.0184 158.607 9.95799 158.849 10.0184C159.091 10.0184 159.454 9.71644 159.756 9.77683C160.058 9.77683 160.058 9.95799 160.058 10.2599C160.058 10.5619 160.058 10.6826 160.179 10.743C160.3 10.8034 160.179 10.3807 160.36 10.3203C160.481 10.2599 160.783 10.3203 160.844 10.6826C160.904 11.0449 161.086 11.1657 161.207 11.3469C161.388 11.528 161.207 12.3734 161.146 12.8565C161.146 13.2792 160.904 13.5208 160.421 13.6416C159.937 13.7623 159.877 14.1247 159.756 14.3058C159.635 14.487 160.36 13.7019 160.542 13.8831C160.723 14.1247 160.36 14.3058 160.239 14.5474C160.119 14.7889 160.481 14.8493 160.844 14.487C161.207 14.1247 161.448 14.185 161.69 13.8831C161.932 13.5812 161.751 13.2792 162.113 13.1585C162.415 13.0981 163.624 13.4 163.987 13.2792C164.35 13.2189 164.954 12.9773 165.256 12.9169C165.498 12.8565 165.256 13.2792 165.861 13.1585C166.405 13.0377 166.707 13.2792 166.888 13.5208C167.07 13.7623 167.07 13.7623 167.13 13.9435C167.13 14.0643 166.707 14.0643 166.526 14.3058C166.344 14.5474 165.921 15.1512 165.861 15.5135C165.8 15.8759 165.8 16.359 166.042 16.6609C166.284 16.9628 166.163 17.144 166.284 17.4459C166.344 17.7478 166.224 17.8686 166.465 18.1705C166.707 18.4121 166.586 18.4121 166.526 18.6536C166.465 18.8952 166.586 19.0763 166.526 19.1971C166.465 19.3783 166.344 19.3179 166.465 19.5594C166.586 19.801 166.526 19.8614 166.465 19.9821C166.405 20.1633 166.768 20.4048 166.888 20.586C167.009 20.7068 166.888 20.8879 166.828 21.0691C166.768 21.1899 167.07 21.0087 167.13 21.1295C167.191 21.2503 167.07 21.371 167.191 21.5522C167.312 21.7937 167.07 21.9145 167.191 21.9749C167.312 22.0353 167.553 22.0957 167.674 22.2768C167.795 22.458 167.674 22.5788 167.674 22.8203C167.674 23.0618 167.976 23.243 167.976 23.4242C168.037 23.6053 167.856 24.028 167.976 24.2092C168.097 24.4507 168.218 24.6319 168.52 24.8131C168.823 25.0546 168.883 25.1754 168.883 25.2962C168.883 25.4169 168.641 25.5377 167.856 25.5981C167.07 25.6585 166.888 25.7189 166.888 25.7189C166.888 25.7189 166.768 26.2623 166.647 26.5039C166.526 26.8058 166.405 27.3493 166.465 27.7116C166.526 28.0739 166.465 28.6174 166.647 28.9193C166.828 29.1609 167.191 29.7044 167.13 29.8251C167.07 29.9459 166.828 29.7044 166.344 29.4024C165.861 29.1609 165.74 29.1005 165.74 29.1005C165.74 29.1005 165.74 29.644 165.8 30.1875C165.861 30.7309 165.921 30.5498 166.163 30.7913C166.405 31.0329 166.526 31.0933 166.465 31.3348C166.405 31.5763 166.344 31.4556 165.982 31.3952C165.68 31.3348 165.559 31.3952 165.498 31.6367C165.438 31.8179 165.438 32.1802 165.438 32.4821C165.377 32.7841 165.619 33.0256 165.8 33.2672C165.982 33.5087 166.344 33.4483 166.465 33.6899C166.586 33.9314 166.586 33.9918 166.707 33.9918C166.828 33.9918 166.828 34.173 166.586 34.2937C166.586 34.2937 166.888 34.173 166.949 34.3541C167.009 34.5353 166.949 34.7768 167.13 35.1995C167.312 35.6222 167.795 36.2865 167.976 36.528C168.218 36.7092 168.52 36.8904 169.125 36.5884C169.125 36.5884 168.762 36.528 168.641 36.2865C168.52 36.0449 168.823 36.0449 169.004 35.9242C169.185 35.8034 169.306 35.3807 169.488 35.5015C169.669 35.6222 170.032 36.0449 170.032 36.2865C170.092 36.528 170.032 36.7092 170.334 36.83C170.636 36.9507 170.878 36.9507 170.999 37.1923C171.18 37.4338 171.18 37.3734 171.422 37.3131C171.664 37.2527 171.543 37.0111 171.724 36.9507C171.905 36.8904 172.026 37.3734 172.208 37.3131C172.389 37.2527 172.691 37.1923 172.812 37.3734C172.933 37.5546 173.054 38.0377 172.872 38.2189C172.691 38.4 172.328 38.4604 172.208 38.1585C172.087 37.9169 172.328 37.9773 172.087 37.7358C171.845 37.4942 171.603 37.6754 171.784 37.9169C171.966 38.1585 171.724 38.2189 171.845 38.3396C171.966 38.5208 172.147 38.1585 172.268 38.7019C172.449 39.2454 172.691 40.0305 173.054 40.3324C173.416 40.6343 173.719 40.6947 174.323 40.7551C174.867 40.8155 174.867 40.5739 174.988 40.9966C175.048 41.4193 175.048 41.9628 174.867 42.144C174.686 42.3251 174.444 42.144 174.384 42.6271C174.323 43.1102 174.504 43.9556 174.746 44.2575C174.988 44.6198 175.411 44.6198 175.713 44.7406C176.016 44.8614 176.257 45.2841 176.439 45.2237C176.62 45.1633 176.801 45.2237 176.801 45.4048C176.801 45.586 176.499 45.586 176.257 45.5256C176.016 45.5256 176.016 45.8879 175.955 46.2503C175.955 46.5522 176.136 47.458 176.378 47.7599C176.68 48.0619 176.983 48.1222 177.225 48.5449C177.466 49.028 177.829 49.5715 177.889 49.7527C177.95 49.9338 177.889 50.0546 178.01 50.2358C178.131 50.3565 178.071 50.4773 178.01 50.6585C177.95 50.8396 178.071 50.7189 178.192 51.0208C178.312 51.3227 178.312 52.2285 178.312 52.3493C178.312 52.5304 178.192 52.6512 177.889 52.3493C177.587 52.1077 177.345 52.2889 176.922 52.1077C176.499 51.9266 170.213 49.028 168.702 47.8203C167.191 46.6126 167.372 46.2503 166.949 45.8276C166.526 45.3445 166.344 44.9821 166.163 44.499C165.982 44.016 165.74 43.7744 165.74 43.6536C165.74 43.5329 166.163 43.714 165.861 43.3517C165.619 42.9894 164.773 42.7478 164.712 42.5063C164.652 42.2648 164.894 42.3251 165.075 42.2044C165.256 42.0836 165.015 41.7213 165.015 41.4193C165.015 41.1174 165.438 41.2986 165.317 40.8759C165.256 40.4532 165.135 39.7285 164.954 39.0039C164.773 38.2792 164.289 37.8565 164.108 37.0111C163.866 36.1657 163.806 36.3469 163.624 35.3807C163.443 34.4145 163.383 34.2333 163.08 33.8106C162.778 33.3276 162.899 33.2672 162.839 32.7237C162.778 32.1802 162.718 32.1198 162.899 31.8179C163.08 31.516 163.08 31.3952 162.899 31.2744C162.718 31.1536 162.415 30.9121 162.355 30.4894C162.295 30.0667 161.932 30.6102 161.509 30.3082C161.146 30.0063 161.448 29.9459 161.086 29.7647C160.723 29.5836 160.36 29.4024 160.239 29.1005C160.119 28.7986 159.998 28.557 160.239 28.3759C160.481 28.1947 160.602 27.772 160.481 27.772C160.36 27.772 159.877 28.2551 159.635 28.3155C159.393 28.4362 159.635 28.9193 159.454 29.1609C159.272 29.4024 159.212 29.5232 159.333 29.7044C159.454 29.9459 159.635 29.7044 159.877 30.0063C160.058 30.3082 160.36 30.6102 160.602 30.7309C160.783 30.8517 161.388 30.6705 161.388 30.9121C161.388 31.1536 161.388 31.214 161.146 31.214C160.904 31.214 160.723 31.2744 160.723 31.4556C160.723 31.5763 161.207 33.0256 161.267 33.3276C161.327 33.6295 161.69 34.2333 161.569 34.5957C161.448 34.8976 161.509 34.8976 161.569 35.1391C161.569 35.3807 161.207 35.3203 161.025 35.0184C160.904 34.7164 160.904 34.4145 160.783 34.4749C160.602 34.5353 160.965 34.958 160.723 35.0788C160.481 35.1995 160.36 34.8372 159.998 34.4145C159.695 33.9918 159.393 33.5691 159.091 33.3879C158.789 33.2068 158.668 33.5691 158.849 33.871C159.031 34.173 159.272 34.2333 158.97 34.4145C158.668 34.5957 158.426 34.173 158.184 34.2937C157.943 34.4145 158.063 34.6561 158.184 34.7768C158.245 34.8976 158.184 35.5015 157.882 35.743C157.58 35.9846 157.338 36.5884 157.519 37.1319C157.64 37.6754 157.882 37.615 158.003 38.1585C158.124 38.7623 158.305 38.7623 158.366 39.487C158.426 40.2116 158.607 40.8155 158.728 41.2382C158.789 41.6609 159.091 42.144 159.212 42.3251C159.333 42.5063 159.454 42.8686 159.575 42.6875C159.695 42.5063 159.575 42.2648 159.756 42.144C159.937 42.0232 159.816 41.7213 160.179 41.7817C160.542 41.7817 160.965 41.7213 160.965 41.9628C160.965 42.2044 160.421 42.5667 160.36 42.8082C160.3 43.0498 160.542 43.1102 160.421 43.3517C160.3 43.5933 160.119 43.5933 159.756 43.5933C159.393 43.6536 159.272 43.8952 159.454 44.0763C159.575 44.2575 159.695 44.3783 159.514 44.5594C159.333 44.7406 159.756 44.8614 159.514 45.1029C159.212 45.2841 158.97 45.2237 158.91 45.4048C158.849 45.6464 159.151 46.0087 158.91 46.1899C158.728 46.371 158.366 46.5522 158.003 46.2503C157.64 45.9483 158.789 45.4048 158.607 44.9218C158.426 44.4387 158.305 45.2237 157.943 45.3445C157.58 45.4652 157.157 45.2237 156.794 45.4048C156.431 45.586 156.552 45.8879 156.069 46.2503C155.585 46.5522 155.223 46.5522 155.162 46.8541C155.102 47.1561 155.706 47.2768 155.706 47.5184C155.706 47.7599 156.008 47.5184 155.887 47.8807C155.767 48.243 155.646 48.243 155.283 48.4242C154.92 48.6053 154.92 49.5715 154.135 49.7527C153.349 49.9942 153.893 50.2962 153.651 50.5981C153.47 50.9 153.167 50.7189 152.986 50.5377C152.805 50.3565 151.475 52.1681 150.991 52.6512C150.508 53.1343 150.024 53.3759 150.206 54.342C150.387 55.3686 150.629 55.1875 150.327 55.9121C150.024 56.6367 150.387 57.3614 150.568 57.7841C150.689 58.2068 150.508 58.2672 150.327 59.1126C150.145 59.958 150.085 62.7358 150.206 63.5812C150.327 64.3662 150.206 64.7285 150.024 65.1512C149.903 65.6343 149.903 65.8155 149.903 66.2986C149.903 66.7213 149.662 66.842 149.42 67.2044C149.178 67.5667 149.178 68.1705 149.601 68.1705C150.024 68.1705 150.145 68.0498 150.568 67.929C150.991 67.8082 150.931 67.2647 151.354 67.2044C151.777 67.144 151.959 67.6271 152.14 67.9894C152.261 68.3517 152.382 68.8952 152.623 68.7744C152.805 68.6536 153.167 68.4725 152.986 68.1705C152.805 67.8686 152.503 67.9894 152.744 67.4459C152.986 66.9024 153.228 67.0232 153.167 67.3251C153.107 67.6271 153.47 67.3251 153.591 67.5063C153.711 67.7478 153.651 68.2913 153.591 68.5329C153.53 68.7744 154.376 68.9556 154.316 68.1102C154.255 67.2647 154.255 67.0232 154.376 66.9628C154.497 66.9024 154.799 67.0836 154.799 67.5667C154.799 68.0498 155.223 67.929 155.041 67.3251C154.86 66.7213 154.014 66.359 154.074 66.057C154.135 65.7551 154.497 65.9966 154.679 66.057C154.92 66.057 154.86 65.5135 155.404 65.3324C156.008 65.1512 156.069 65.2116 156.431 65.4532C156.794 65.6343 157.58 65.6947 158.124 65.6947C158.668 65.6947 158.728 65.5739 158.789 65.9362C158.849 66.2382 158.547 66.4193 158.607 66.6005C158.668 66.7817 159.212 66.6005 159.454 66.9628C159.695 67.3251 159.695 67.6271 159.998 67.6271C160.3 67.6271 160.602 67.5667 160.663 67.929C160.783 68.2913 161.025 68.7744 160.844 69.2575C160.663 69.7406 161.448 70.3445 161.569 70.6464C161.751 71.0087 161.448 71.4918 162.113 72.0353C162.778 72.5788 164.168 74.2696 164.471 75.4169C164.833 76.5643 164.591 78.1947 164.591 78.4966C164.591 78.7382 164.954 78.7382 164.894 79.1005C164.833 79.5232 164.592 79.5232 164.773 80.0667C164.954 80.6102 165.559 82.2406 165.438 84.1126C165.317 85.9242 165.075 88.2792 165.075 88.702C165.075 89.1247 165.498 89.487 165.559 89.7889C165.559 90.0908 165.377 90.2116 165.377 90.4532C165.377 90.6947 164.894 93.2309 163.745 93.9556C162.536 94.6802 162.234 94.801 161.992 94.4991C161.751 94.1971 161.992 93.714 161.509 93.9556C161.025 94.1971 160.783 94.801 160.663 95.2237C160.542 95.7068 160.783 96.2503 160.36 96.673C159.937 97.1561 160.481 95.7068 159.816 94.5594C159.151 93.4121 157.882 92.5667 157.761 91.9628C157.701 91.4193 158.063 91.1778 158.305 90.272C158.547 89.3058 159.393 89.6681 159.877 89.8493C160.36 90.0305 159.695 87.5546 159.695 86.7696C159.695 85.9846 159.212 85.8638 159.031 85.2599C158.849 84.7164 158.487 84.6561 158.487 83.9918C158.487 83.3276 158.97 83.1464 158.668 82.6633C158.366 82.1802 158.184 81.2744 157.64 81.5764C157.096 81.8179 156.734 82.2406 156.613 82.7237C156.492 83.2068 156.311 83.0256 156.008 83.3879C155.706 83.7503 155.887 84.7768 155.343 85.1995C154.799 85.6222 153.711 86.1053 153.228 85.9846C152.805 85.9242 152.382 85.5619 151.959 84.958C151.535 84.2937 151.656 84.1126 151.294 84.1126C150.931 84.1126 150.629 84.4749 150.024 84.1126C149.42 83.7503 149.178 83.9314 148.694 84.0522C148.211 84.173 148.453 83.9918 147.727 84.2334C147.002 84.4749 146.398 84.958 144.524 82.7841C142.65 80.6706 141.139 79.644 140.293 79.342C139.446 79.0401 139.144 79.2213 138.661 79.342C138.177 79.4628 137.754 79.2213 137.029 79.2817C136.303 79.342 135.699 79.7648 134.913 80.1875C134.127 80.6102 133.704 81.1536 133.16 82.1198C132.616 83.086 132.918 83.1464 133.281 83.1464C133.644 83.1464 133.946 83.6295 134.127 84.1126C134.309 84.5957 133.946 84.6561 133.704 85.3807C133.523 86.1053 133.765 87.5546 133.644 88.0981C133.462 88.6416 133.765 88.9435 133.946 89.1247C134.127 89.3058 134.067 89.3662 133.644 90.0305C133.221 90.6343 133.16 91.4193 132.616 91.7817C132.012 92.144 131.165 91.7817 130.38 91.6609C129.533 91.5401 129.654 92.2647 128.808 92.3251C128.022 92.3855 127.962 91.6005 127.116 91.7817C126.269 91.9628 125.907 93.8348 125.242 94.2575C124.577 94.7406 123.791 94.801 123.126 95.4652C122.461 96.1295 122.22 96.371 120.769 96.4314C119.258 96.4314 118.714 96.7333 118.109 96.2503C117.505 95.7672 117.384 95.2841 116.84 95.2841C116.296 95.2841 116.115 95.4652 115.692 95.1029C115.268 94.6802 114.12 94.6802 113.153 95.1029C112.125 95.586 111.521 96.1899 110.735 96.1295C110.01 96.0691 109.768 95.586 108.982 95.6464C108.136 95.7068 108.559 94.2575 107.834 93.5933C107.048 92.929 104.932 92.929 104.147 92.5667C103.361 92.2044 102.998 92.0232 102.998 92.2648C102.998 92.5063 102.333 93.1705 102.091 93.5329C101.85 93.8952 101.547 93.8952 101.547 94.5594C101.608 95.1633 101.789 96.1899 102.031 96.371C102.273 96.4918 102.454 96.4918 102.454 96.9145C102.454 97.3372 101.608 97.6392 101.245 98.0015C100.883 98.4242 100.641 97.9411 100.036 98.0015C99.4319 98.0619 99.1297 97.458 98.5252 97.6995C97.9208 97.9411 97.3768 98.0015 96.8932 97.3976C96.4096 96.7937 96.2283 96.371 95.4425 96.371C94.6567 96.371 94.1127 96.673 93.9918 96.3106C93.871 95.9483 93.9918 95.6464 93.0852 95.9483C92.118 96.3106 91.4532 96.6126 91.03 96.8541C90.6069 97.0957 89.3376 97.6392 89.0958 97.8807C88.854 98.1826 89.2771 98.4846 88.0682 98.8469C86.9198 99.2092 86.8593 98.8469 86.4967 99.2092C86.0736 99.5715 85.7713 99.6923 85.3482 99.6319C84.9251 99.5715 84.4415 98.4846 83.8371 98.4242C83.2326 98.3638 82.326 98.4846 81.9029 98.1222C81.4193 97.7599 81.4797 96.9749 80.8753 96.5522C80.2104 96.1295 80.6335 95.8276 80.2709 95.2237C79.8477 94.6802 79.3642 94.1971 78.5179 94.4991C77.6717 94.801 76.9464 94.6198 76.5837 94.4387C76.221 94.1971 76.0397 93.6536 75.7375 93.2913C75.4353 92.929 75.1935 92.9894 74.9517 93.4121C74.7704 93.8952 74.4077 94.016 74.2264 94.016C74.045 94.016 73.2592 90.3324 72.8361 88.9435C72.413 87.5546 71.1437 85.8034 70.8414 85.5619C70.5392 85.2599 70.781 85.0184 70.9019 84.6561C71.0228 84.2937 70.8414 84.4145 70.2974 84.4145C69.7534 84.4145 69.2699 84.958 68.5445 85.1392C67.8192 85.3807 67.0334 85.3203 66.5499 85.0788C66.0663 84.8372 66.429 84.7164 66.3081 84.4145C66.2476 84.1126 66.0663 83.871 65.7036 83.6899C65.341 83.5087 64.9783 83.9918 64.8574 83.8106C64.7365 83.6295 64.9783 83.0256 64.1321 82.9652C63.2858 82.9048 63.2858 82.4821 63.4067 82.1802C63.5276 81.8783 63.8298 81.6367 63.5881 81.0933C63.3463 80.5498 63.8298 80.0667 63.5276 79.8855C63.2254 79.7044 62.7418 79.8251 62.1978 79.2817C61.6538 78.7382 60.9285 79.1609 60.0218 79.2817C59.1151 79.4024 57.1809 79.0401 56.4556 78.9797C55.7302 78.9193 55.6698 79.2213 54.8235 79.1005C53.9169 78.9797 50.7737 78.3155 50.3506 78.0739C49.9275 77.772 49.5648 77.8324 49.5044 78.3759C49.5044 78.9193 49.4439 79.342 49.8066 79.8251C50.1693 80.3082 50.2297 80.4894 49.8671 80.5498C49.5648 80.6102 49.323 80.0667 48.779 80.0667C48.235 80.0667 47.9328 80.1875 47.9933 80.5498C48.0537 80.9121 47.9933 81.3348 47.5701 81.3348C47.147 81.3348 46.3612 81.3348 46.3612 81.516C46.3612 81.6971 46.603 82.6633 46.9053 83.4483C47.2075 84.173 47.0261 84.4749 46.4217 84.6561C45.8777 84.8372 45.2128 84.7768 44.9106 84.4145C44.6083 84.0522 44.6083 84.0522 44.0643 84.1126C43.5203 84.173 43.8226 84.1126 43.2786 83.5087C42.7346 82.9049 42.795 82.6029 42.7346 82.2406C42.6741 81.8783 42.4323 81.6971 42.1906 81.6367C41.9488 81.5763 41.4652 82.0594 41.163 81.6367C40.8608 81.214 40.8003 80.8517 40.4981 80.7913C40.1959 80.7309 39.8332 80.7309 39.1683 80.9121C38.5034 81.0933 38.2616 81.2744 38.0199 80.5498C37.7781 79.8251 37.7781 79.5232 37.6572 79.5232C37.5363 79.5232 36.9318 79.5836 36.811 78.6778C36.6901 77.772 36.4483 77.4701 36.0252 76.8662C35.5416 76.3227 35.7834 75.9604 35.4207 75.6585C34.9976 75.2962 34.2723 75.9 34.0305 75.5377C33.7887 75.1754 34.1514 74.6319 33.6678 74.5111C33.1843 74.3904 31.6127 74.7527 30.5247 74.6923C29.3762 74.6319 29.074 74.6923 28.7113 75.2962C28.3487 75.9 28.1069 75.5981 27.986 74.9338C27.8651 74.33 28.2882 73.9073 27.442 74.1488C26.5958 74.3904 25.1451 74.4507 25.0846 74.9338C25.0242 75.4169 25.2055 75.8396 24.4802 76.1416C23.7549 76.4435 23.5735 76.3831 23.5131 77.2889C23.4526 78.2551 23.0295 78.1947 23.2713 78.557C23.5131 78.9193 24.1175 79.1609 24.3593 79.9459C24.6011 80.6705 23.8757 82.7237 23.6944 83.086C23.5131 83.5087 22.8482 82.0594 22.0019 82.301C21.1557 82.5425 20.6722 83.2068 19.5842 83.871C18.5566 84.4749 17.7708 84.2334 17.4686 84.5957C17.1664 84.958 17.6499 84.958 17.4686 85.8638C17.2872 86.7696 16.441 87.7962 16.2597 88.1585C16.0179 88.5208 16.441 90.7551 16.0783 91.2382C15.6552 91.7213 14.9299 92.0836 14.2046 91.9024C13.4792 91.7213 13.6606 90.8759 13.177 89.6077C12.6934 88.3396 12.3912 87.9169 12.6934 87.4338C13.0561 86.9507 12.089 85.8034 11.9681 85.5619C11.8472 85.3203 10.6383 85.6222 10.2756 84.3541C9.91297 83.086 9.48985 82.1802 8.52273 80.9725C7.55561 79.8251 7.49517 78.7382 6.83028 78.1947C6.10494 77.6512 6.34672 75.7189 6.10494 74.6319C5.86316 73.5449 5.62138 73.5449 5.50049 72.458C5.3796 71.371 5.25871 71.0087 5.62138 71.0087C5.98405 71.0087 6.28627 71.1899 6.64894 71.5522C7.01161 71.8541 7.19295 71.9145 7.6765 71.673C8.16006 71.4314 8.64362 71.371 9.00629 71.5522C9.36896 71.7333 9.5503 71.2503 9.36896 70.8276C9.18763 70.4048 9.36896 70.2841 9.5503 70.0425C9.73163 69.801 10.2152 70.4652 10.5174 70.4048C10.8196 70.4048 11.545 71.1295 11.8472 70.9483C12.2099 70.7672 12.2099 70.6464 11.6659 70.1633C11.1219 69.6198 11.001 69.3783 11.7263 69.3179C12.4517 69.2575 13.2374 69.6198 13.7814 69.8614C14.3254 70.1633 14.5068 70.2841 15.1112 69.4387C15.6552 68.6536 15.5343 68.3517 16.3806 68.2309C17.2872 68.1102 17.9521 67.0232 17.0455 65.7551C16.1388 64.487 15.7157 64.5474 15.7761 64.0039C15.8366 63.4604 16.0179 63.3396 15.4739 62.9169C14.9299 62.4942 14.265 61.2865 14.2046 61.2261C14.1441 61.1657 14.265 60.8034 14.809 60.2599C15.353 59.7164 14.9299 59.3541 14.6881 58.871C14.4463 58.3276 14.5068 57.9048 15.1112 57.7841C15.7157 57.6633 15.5948 56.8179 15.897 56.3348C16.1992 55.7913 15.6552 55.4894 15.1717 54.8855C14.6881 54.2817 14.265 54.7648 13.9023 54.2817C13.5397 53.7986 14.5672 53.0739 14.8694 52.5908C15.1112 52.0474 15.2321 51.6247 15.4739 51.8662C15.7157 52.1077 15.9575 52.8928 16.5015 53.0135C17.0455 53.1343 17.4686 53.1947 17.3477 52.4701C17.2268 51.7454 17.529 51.3831 17.5895 50.2962C17.6499 49.2092 18.2544 49.4507 18.3148 48.9073C18.3148 48.3638 18.8588 48.6053 19.1006 48.3638C19.3424 48.1222 19.161 47.7599 19.6446 47.6995C20.1282 47.6391 19.7655 46.7937 19.5237 46.1295C19.2215 45.4652 18.9193 44.4991 18.9797 44.0763C19.0401 43.714 19.5842 42.6875 20.249 41.842C20.9139 40.9966 20.9744 40.5739 21.5184 40.6947C22.0624 40.8155 22.0019 41.2986 22.3042 41.1174C22.6064 40.9362 22.3042 40.2116 22.7877 40.0908C23.2713 39.9701 23.5735 39.5474 24.0571 39.5474C24.5406 39.5474 25.2055 39.0643 25.7495 38.8227C26.2935 38.5812 26.6562 39.2454 26.8375 39.3662C27.0793 39.4266 27.2607 38.5812 27.8047 38.2792C28.8927 38.0981 33.2447 37.9773 34.4536 37.4942ZM9.36896 33.6295C9.5503 35.5015 10.8196 36.8904 11.3636 37.9773C11.545 37.9169 12.2099 37.6754 12.3308 37.615C13.3583 37.0111 12.5725 36.2261 12.5121 35.4411C12.4517 34.5353 12.6934 34.7164 12.0285 34.2937C10.9405 35.0788 12.5121 34.6561 11.545 34.958C11.4241 33.871 11.1219 33.8106 10.6988 33.4483C10.3965 33.5691 10.2152 33.9918 9.36896 33.6295ZM0.846229 64.0039C1.08801 64.9097 1.7529 64.487 1.39023 65.6947C1.2089 66.2986 1.45068 66.057 0.906674 66.359C0.664894 66.5401 0.725339 66.4193 0.423114 66.5401C0.24178 66.6005 0.12089 66.7213 0 66.7817C0.544004 69.2575 1.14845 67.5063 2.17602 68.0498C2.90136 68.4121 2.17602 69.0763 4.29159 69.0763C4.77515 71.1295 5.86316 70.2237 6.5885 70.4048C6.46761 69.8614 6.5885 70.2841 6.34672 69.8614L5.98405 69.2575C5.62138 68.8952 5.19826 69.0763 4.89604 68.5329C4.53337 67.9894 4.89604 67.8686 5.01693 67.3251L4.83559 65.4532C4.65426 64.8493 4.95648 65.0304 4.41248 64.9097C3.74758 64.7285 4.29159 65.4532 3.26403 64.5474C2.53869 63.8831 2.90136 64.3662 1.93424 64.0643C1.32979 63.8227 1.26934 63.5812 0.846229 64.0039ZM98.3439 20.1029C98.5252 19.9821 98.767 20.1029 99.0088 20.4652C99.1901 20.8276 98.9483 21.4314 99.1297 21.7333C99.2505 22.0353 99.2505 22.1561 99.1297 22.2768C99.0088 22.3976 98.767 22.3976 98.8879 22.5788C99.0088 22.7599 99.1297 22.7599 99.1901 23.1222C99.2506 23.4846 99.311 23.6053 99.0088 23.6657C98.6461 23.7261 98.1021 23.8469 97.9208 23.4846C97.679 23.1826 97.8603 23.1826 97.3768 23.1222C96.8932 23.0618 96.7119 23.1826 96.4701 22.8203C96.1679 22.458 95.5634 22.0353 95.5634 21.673C95.6239 21.3106 95.7448 21.4314 95.8656 20.9483C95.9865 20.4652 96.7723 20.0425 96.8932 19.8614C97.0141 19.6198 96.4096 19.8614 96.1679 20.1029C95.8656 20.3445 95.7448 21.1295 95.5634 21.3106C95.3821 21.4918 94.7172 21.1899 94.3545 20.8276C93.9918 20.4652 93.9314 20.0425 94.1127 19.9218C94.2941 19.801 94.5359 20.2841 94.959 20.1029C95.3821 19.9218 95.0194 19.9821 95.1403 19.6802C95.2612 19.3783 94.5963 19.4991 94.7172 19.1971C94.8381 18.8952 95.3821 18.5933 95.3821 18.2913C95.3216 17.9894 95.0194 17.9894 95.2007 17.6875C95.3821 17.3855 95.9865 17.4459 96.1679 17.0232C96.3492 16.6005 96.4096 16.4193 96.6514 16.4797C96.9536 16.6005 96.8932 17.3251 97.135 17.4459C97.3768 17.5667 97.7999 17.7478 97.7999 18.1705C97.7999 18.5329 97.4977 18.4725 97.6185 18.8348C97.7394 19.1971 97.8603 19.1971 97.7394 19.499C97.6185 19.7406 97.4977 19.5594 97.6185 19.7406C97.6185 20.1029 98.1021 20.2841 98.3439 20.1029ZM100.218 22.0957C100.097 22.458 99.9154 22.5184 100.036 22.7599C100.157 23.0015 100.036 23.0015 99.9154 23.1826C99.7946 23.3638 100.218 23.3638 100.097 23.6053C100.036 23.8469 99.6737 23.6053 99.6737 23.9676C99.6737 24.33 99.4319 25.115 99.3714 25.4169C99.2505 25.6585 99.2505 25.6585 99.2505 25.9604C100.58 25.2962 103.844 24.33 101.91 22.6995C101.245 22.0353 101.245 22.6995 100.943 23.0015C100.943 22.6995 100.943 22.3372 101.064 21.8541C100.943 21.6126 100.52 21.6126 100.459 21.8541C100.399 22.1561 100.278 21.9749 100.218 22.0957ZM132.314 17.8686C132.495 19.4387 134.188 18.4725 135.155 18.4725C135.155 17.8082 135.457 16.842 134.49 16.4797C134.188 17.144 133.16 17.144 132.918 17.8686C132.797 18.0498 132.253 17.0836 132.314 17.8686ZM126.33 24.7527C129.231 26.685 130.561 22.7599 132.193 21.0691C130.863 21.7333 128.929 20.7672 129.896 19.7406C130.198 19.0763 130.198 20.7068 130.863 21.0691C132.858 21.371 131.83 19.0763 131.83 18.1102C130.863 18.7744 129.836 17.8082 129.171 19.0763C128.869 19.3783 127.841 18.4121 127.176 19.0763C127.841 19.7406 127.841 20.7068 128.506 21.371C127.539 21.0691 126.511 20.0425 125.242 20.4048C124.94 20.7068 124.94 21.371 125 21.7333C124.819 22.0957 125 23.3034 126.33 24.7527ZM126.451 28.4362C126.33 28.7382 126.632 29.0401 126.934 29.342C127.237 29.0401 127.539 28.7382 126.995 28.3155C126.934 28.1947 126.572 28.2551 126.451 28.4362ZM127.176 30.6102C127.237 29.0401 128.385 27.3493 129.231 28.4966C129.836 28.7986 128.929 29.644 128.143 29.7647C127.841 29.8251 127.176 30.7913 127.176 30.6102ZM154.497 0.356537C152.623 1.08118 153.591 3.37586 154.92 3.37586C155.887 3.67779 155.585 2.04736 155.827 0.960402C155.767 0.356537 155.706 -0.488873 154.497 0.356537ZM151.959 65.7551C152.019 65.9966 151.959 66.4797 152.079 66.6005C152.2 66.7213 152.321 66.4193 152.563 66.5401C152.805 66.6609 152.865 66.7213 152.986 66.4193C153.107 66.1174 152.865 65.6947 152.805 65.5739C152.744 65.3928 151.898 65.5135 151.959 65.7551ZM158.607 62.5546C158.668 62.8565 158.366 63.0981 158.789 63.1585C159.151 63.2792 159.635 63.5208 159.756 63.7623C159.877 64.0039 159.454 63.9435 159.635 64.1246C159.816 64.3058 160.058 64.185 159.998 64.5474C159.937 64.9097 159.695 64.5474 159.454 64.6077C159.212 64.6681 159.393 65.2116 159.575 65.5135C159.756 65.8155 160.663 66.4193 160.844 66.842C161.025 67.2647 161.086 67.5063 161.509 67.8686C161.992 68.2309 162.174 68.4121 162.657 68.5933C163.201 68.714 163.503 68.6536 163.745 69.2575C163.987 69.801 164.289 70.3445 164.773 70.7068C165.256 71.0691 166.465 72.8203 166.768 73.3638C167.07 73.9073 167.191 74.028 167.614 74.2092C168.097 74.3904 168.158 74.2696 168.4 74.6319C168.641 74.9338 169.004 75.8396 169.427 76.2623C169.85 76.685 170.213 77.5305 170.636 77.9532C171.12 78.3759 171.301 78.7986 171.543 78.7382C171.784 78.6778 171.482 78.2551 171.361 77.772C171.24 77.2889 170.999 77.0474 171.059 76.685C171.18 76.3227 171.966 76.3227 172.389 76.3227C172.812 76.3227 172.812 76.7454 173.054 76.7454C173.235 76.7454 172.993 76.4435 173.054 76.2019C173.114 75.9604 173.054 75.9604 172.691 75.5981C172.268 75.1754 171.966 75.115 171.905 75.2962C171.845 75.4773 171.664 75.6585 171.361 75.4169C171.12 75.115 171.543 75.1754 170.817 74.9942C170.092 74.8131 169.548 75.0546 168.823 73.8469C168.097 72.6391 168.218 72.3372 167.856 71.9145C167.553 71.4918 167.372 71.5522 167.553 71.1899C167.735 70.8276 168.218 70.4048 168.641 70.586C169.064 70.7068 169.971 70.7672 170.032 70.586C170.092 70.4048 169.79 70.3445 169.367 70.2237C168.944 70.1029 168.279 69.801 168.158 69.6198C168.037 69.4387 168.158 69.2575 167.795 69.1367C167.493 69.0763 167.432 69.1971 166.828 68.7744C166.224 68.3517 165.075 67.5063 164.712 67.3251C164.35 67.144 164.41 66.9024 164.108 66.9024C163.806 66.9024 163.866 66.7817 163.564 66.6005C163.262 66.4193 162.899 66.4797 162.778 66.1778C162.597 65.8759 162.476 66.057 162.295 65.9362C162.113 65.7551 162.415 65.6947 162.597 65.5135C162.778 65.3324 162.053 65.0304 161.69 64.7889C161.327 64.5474 160.904 64.6077 160.904 64.2454C160.904 63.8831 161.327 64.4266 161.327 64.0643C161.267 63.7019 160.602 63.9435 160.421 63.7019C160.239 63.4604 159.575 63.0981 159.454 62.7358C159.393 62.3734 158.607 62.0715 158.607 62.5546ZM63.6485 36.3469C63.8298 36.0449 64.0716 36.1657 64.2529 36.3469C64.3738 36.528 64.5552 36.8904 64.1925 37.0111C63.8903 37.1923 63.8298 36.9507 63.8903 36.7092C63.9507 36.4676 63.5276 36.528 63.6485 36.3469ZM63.8903 34.8976C63.5881 35.4411 63.5881 36.1053 63.7694 35.9846C63.9507 35.8638 64.3134 35.6222 64.3738 35.9846C64.4343 36.3469 64.9178 36.2865 64.8574 36.6488C64.8574 36.9507 64.3134 37.1319 64.1321 37.4338C63.9507 37.7962 64.3134 37.9169 64.5552 38.3396C64.7365 38.8227 65.2201 39.0643 65.6432 39.4266C66.1267 39.7889 66.3685 39.9097 66.5499 39.5474C66.7312 39.185 66.1872 38.5208 66.3685 37.615C66.5499 36.7092 67.0334 35.3203 67.8192 34.958C68.605 34.5957 68.6654 34.4749 68.6654 34.1126C68.6654 33.7503 68.3632 33.4483 68.5445 33.2672C68.7259 33.1464 69.149 33.5087 69.0281 33.871C68.9072 34.2333 69.8139 33.6899 70.0557 33.3879C70.2974 33.086 71.2646 32.7237 71.5668 32.5425C71.869 32.3614 71.7481 32.1802 71.7481 31.8179C71.7481 31.4556 71.9295 32.2406 72.1712 32.1802C72.413 32.1198 73.3801 32.1802 73.6219 31.8179C73.8637 31.4556 73.1988 31.3952 73.6219 31.2744C74.045 31.1536 76.3419 31.1536 77.1882 30.9725C78.0344 30.7913 79.1224 30.7913 79.4851 30.6705C79.9082 30.5498 80.0291 30.2478 80.2709 30.0063C80.4522 29.7647 80.4522 28.9797 80.2709 28.7986C80.0895 28.6174 80.0895 28.6778 79.5455 28.6778C79.0015 28.6778 79.1224 28.9193 78.8202 28.9797C78.5179 29.0401 78.3971 29.1005 78.3971 29.2817C78.3366 29.4628 77.7322 29.5232 77.0068 29.4024C76.2815 29.2213 76.1002 29.1609 75.8584 28.9193C75.677 28.6778 75.4957 28.7382 75.3144 28.9193C75.1935 29.1005 75.133 29.2213 74.7099 29.1005C74.2868 28.9797 74.1055 28.9193 73.5615 29.0401C73.0175 29.1609 72.7152 29.5836 72.3526 29.644C71.9295 29.7647 72.0503 29.2213 71.8086 29.4024C71.5668 29.5836 71.9899 29.5836 71.4459 29.8251C70.9019 30.0667 70.4788 30.1875 70.8414 30.4894C71.1437 30.7913 71.2646 30.8517 71.0832 30.9121C70.9019 30.9121 70.6601 30.5498 70.3579 30.5498C70.0557 30.5498 70.237 30.8517 70.1161 30.9725C69.9952 31.0933 69.8139 31.1536 69.3908 31.2744C68.9677 31.4556 68.5445 31.5763 68.2423 31.5763C67.8796 31.6367 67.8796 31.8783 68.0005 31.999C68.1214 32.1198 68.6654 31.999 68.605 32.1802C68.5445 32.3614 68.4236 32.301 68.061 32.4218C67.6983 32.5425 67.0939 32.301 66.8521 32.5425C66.6103 32.7841 66.3081 33.0256 66.3081 33.0256C66.3081 33.0256 65.7036 32.9652 65.9454 33.4483C65.9454 33.4483 65.2805 34.0522 65.0992 34.2937C64.9178 34.5353 64.7365 33.9314 64.4947 34.1126C64.3738 34.4145 64.132 34.5353 63.8903 34.8976ZM57.4227 39.0039C57.4831 39.3058 57.6645 39.7285 57.9062 39.7889C58.148 39.9097 59.3569 40.0304 59.4778 39.6077C59.5987 39.1247 59.2965 38.3396 58.9942 38.1585C58.692 37.9773 58.3898 38.0981 58.0876 38.4C57.7249 38.7019 57.3622 38.6416 57.4227 39.0039Z" fill="#285CA6"/>
<path d="M54.2796 55.0063C55.6698 55.0063 56.8787 55.4894 57.8458 56.4556C58.8129 57.4218 59.2965 58.5691 59.2965 59.958C59.2965 61.3469 58.8129 62.4942 57.8458 63.4604C56.8787 64.4266 55.6698 64.9097 54.2796 64.9097H52.1035V69.4387H48.8395V55.0063H54.2796ZM54.2796 61.7092C54.7631 61.7092 55.1862 61.5281 55.5489 61.1657C55.8511 60.8034 56.0324 60.3807 56.0324 59.8372C56.0324 59.2938 55.8511 58.8711 55.5489 58.5087C55.2467 58.1464 54.8236 57.9653 54.2796 57.9653H52.1035V61.6488H54.2796V61.7092ZM72.957 67.4459C71.5063 68.8952 69.7534 69.6199 67.6983 69.6199C65.6432 69.6199 63.8903 68.8952 62.4396 67.4459C60.9889 65.9967 60.2636 64.2455 60.2636 62.1319C60.2636 60.0184 60.9889 58.2672 62.4396 56.8179C63.8903 55.3686 65.6432 54.644 67.6983 54.644C69.7534 54.644 71.5063 55.3686 72.957 56.8179C74.4077 58.2672 75.133 60.0184 75.133 62.1319C75.133 64.2455 74.4077 65.9967 72.957 67.4459ZM64.7365 65.2116C65.5223 65.9967 66.5499 66.4194 67.6983 66.4194C68.9072 66.4194 69.8743 65.9967 70.6601 65.2116C71.4459 64.4266 71.869 63.4 71.869 62.1319C71.869 60.8638 71.4459 59.8372 70.6601 59.0522C69.8743 58.2672 68.8468 57.8445 67.6983 57.8445C66.4894 57.8445 65.5223 58.2672 64.7365 59.0522C63.9507 59.8372 63.5276 60.8638 63.5276 62.1319C63.5276 63.4 63.9507 64.4266 64.7365 65.2116ZM83.8371 69.5595C81.7215 69.5595 79.9082 68.8348 78.518 67.4459C77.1277 65.9967 76.4024 64.2455 76.4024 62.1319C76.4024 60.0184 77.1277 58.2672 78.518 56.8179C79.9082 55.3686 81.7215 54.7044 83.8371 54.7044C85.1065 54.7044 86.3154 55.0063 87.4034 55.6102C88.4914 56.2141 89.3376 56.9991 90.0025 58.0256L87.1616 59.6561C86.8594 59.1126 86.3758 58.6899 85.8318 58.3276C85.2273 58.0256 84.5625 57.8445 83.8371 57.8445C82.5678 57.8445 81.5402 58.2068 80.8149 58.9918C80.0291 59.7769 79.6664 60.8034 79.6664 62.0715C79.6664 63.3397 80.0291 64.3662 80.8149 65.1513C81.6006 65.9363 82.5678 66.2986 83.8371 66.2986C84.5625 66.2986 85.2273 66.1174 85.8318 65.8155C86.4362 65.5136 86.8594 65.0909 87.1616 64.5474L90.0025 66.1778C89.398 67.2044 88.5518 67.9894 87.4638 68.5933C86.3154 69.2575 85.1065 69.5595 83.8371 69.5595ZM98.1626 69.5595C96.047 69.5595 94.2336 68.8348 92.8434 67.4459C91.4532 65.9967 90.7278 64.2455 90.7278 62.1319C90.7278 60.0184 91.4532 58.2672 92.8434 56.8179C94.2336 55.3686 96.047 54.7044 98.1626 54.7044C99.4319 54.7044 100.641 55.0063 101.729 55.6102C102.817 56.2141 103.663 56.9991 104.328 58.0256L101.487 59.6561C101.185 59.1126 100.701 58.6899 100.157 58.3276C99.5528 58.0256 98.8879 57.8445 98.1626 57.8445C96.8932 57.8445 95.8656 58.2068 95.1403 58.9918C94.3545 59.7769 93.9919 60.8034 93.9919 62.0715C93.9919 63.3397 94.3545 64.3662 95.1403 65.1513C95.9261 65.9363 96.8932 66.2986 98.1626 66.2986C98.8879 66.2986 99.5528 66.1174 100.157 65.8155C100.762 65.5136 101.185 65.0909 101.487 64.5474L104.328 66.1778C103.723 67.2044 102.877 67.9894 101.789 68.5933C100.641 69.2575 99.4319 69.5595 98.1626 69.5595ZM113.818 69.3179V61.5281L108.317 69.3179H105.839V55.0063H109.103V62.7962L114.604 55.0063H117.082V69.3179H113.818ZM129.896 55.0063V69.3179H126.632V64.6078H125.605L122.582 69.3179H118.895L122.28 64.1851C121.434 63.8228 120.709 63.2189 120.165 62.4339C119.621 61.6488 119.318 60.8034 119.318 59.8372C119.318 58.4484 119.802 57.301 120.769 56.3348C121.736 55.3686 122.885 54.8856 124.275 54.8856L129.896 55.0063ZM124.154 61.7092H126.632V58.0256H124.154C123.731 58.0256 123.308 58.2068 123.005 58.5691C122.703 58.9314 122.522 59.3541 122.522 59.8976C122.522 60.4411 122.703 60.8638 123.005 61.2261C123.308 61.5281 123.67 61.7092 124.154 61.7092Z" fill="#FEFEFE"/>
<path d="M64.797 73.8469C65.341 74.1488 65.6432 74.6319 65.6432 75.2358C65.6432 75.7793 65.4619 76.202 65.0992 76.5643C64.7365 76.8662 64.1925 77.0474 63.5276 77.0474H60.1427V70.7672H63.2858C63.9507 70.7672 64.4947 70.9483 64.8574 71.2503C65.2201 71.5522 65.4014 72.0353 65.4014 72.5788C65.4014 73.1223 65.1596 73.545 64.797 73.8469ZM63.0441 72.2768H61.8352V73.1826H63.0441C63.4067 73.1826 63.5881 73.0619 63.5881 72.7599C63.5881 72.3976 63.4067 72.2768 63.0441 72.2768ZM63.2254 75.4773C63.5881 75.4773 63.7694 75.2962 63.7694 74.9942C63.7694 74.6923 63.5881 74.5715 63.2254 74.5715H61.8352V75.4773H63.2254ZM75.4957 75.2962H76.3419V78.7382H74.5286V77.0474H71.0228V78.7382H69.2094V75.2962H69.9952C70.3579 74.7527 70.4788 74.0281 70.4788 73.1223V70.7672H75.5562L75.4957 75.2962ZM71.869 75.2962H73.6219V72.458H72.2317V73.1223C72.2317 73.9677 72.1108 74.6923 71.869 75.2962ZM78.6993 74.6319C78.9411 75.2358 79.4246 75.5377 80.2104 75.5377C80.694 75.5377 81.1171 75.3566 81.4193 75.0546L82.9304 75.9C82.326 76.7454 81.4193 77.1682 80.2104 77.1682C79.1828 77.1682 78.3366 76.8662 77.6717 76.202C77.0673 75.5981 76.7046 74.8131 76.7046 73.8469C76.7046 72.8807 77.0068 72.0957 77.6113 71.4918C78.2157 70.888 79.062 70.5256 80.0291 70.5256C80.9357 70.5256 81.7215 70.8276 82.326 71.4918C82.9304 72.0957 83.2327 72.9411 83.2327 73.8469C83.2327 74.0884 83.2327 74.3904 83.1722 74.5715L78.6993 74.6319ZM78.6388 73.243H81.3589C81.1775 72.5788 80.7544 72.2768 80.0291 72.2768C79.3037 72.2768 78.8202 72.5788 78.6388 73.243ZM89.0958 70.7672V72.5788H87.222V77.0474H85.3482V72.5788H83.4744V70.7672H89.0958ZM94.2336 70.7672H96.1074V77.0474H94.2336V76.4435C93.8105 76.9266 93.1456 77.2285 92.3598 77.2285C91.5136 77.2285 90.8487 76.9266 90.2443 76.2624C89.6398 75.5981 89.3376 74.8131 89.3376 73.9073C89.3376 73.0015 89.6398 72.2165 90.2443 71.5522C90.8487 70.888 91.5136 70.586 92.3598 70.586C93.1456 70.586 93.8105 70.8276 94.2336 71.371V70.7672ZM91.6345 74.9942C91.9367 75.2962 92.2994 75.4169 92.7225 75.4169C93.1456 75.4169 93.5083 75.2962 93.8105 74.9942C94.1127 74.6923 94.2336 74.33 94.2336 73.9073C94.2336 73.4242 94.1127 73.0619 93.8105 72.8203C93.5083 72.5184 93.1456 72.3976 92.7225 72.3976C92.2994 72.3976 91.9367 72.5184 91.6345 72.8203C91.3323 73.1223 91.2114 73.4846 91.2114 73.9073C91.2718 74.3904 91.3927 74.7527 91.6345 74.9942ZM102.938 70.7672V77.0474H101.064V72.5788H99.7341V74.4508C99.7341 75.4169 99.4923 76.0812 99.0088 76.5643C98.5252 76.987 97.8603 77.1682 96.9537 77.0474V75.2962C97.2559 75.3566 97.4977 75.3566 97.6185 75.1754C97.7999 74.9942 97.8603 74.7527 97.8603 74.33V70.7672H102.938ZM109.526 70.7672V77.0474H107.713V75.2358H107.35L106.081 77.0474H103.965L105.416 74.9942C105.053 74.8131 104.751 74.5111 104.509 74.1488C104.267 73.7865 104.207 73.4242 104.207 73.0015C104.207 72.3976 104.388 71.9145 104.811 71.4314C105.235 71.0087 105.779 70.7672 106.504 70.7672H109.526ZM106.625 72.3976C106.444 72.3976 106.262 72.458 106.141 72.5788C106.02 72.6996 105.96 72.8203 105.96 73.0619C105.96 73.243 106.02 73.4242 106.141 73.4846C106.262 73.6053 106.444 73.6657 106.625 73.6657H107.713V72.3976H106.625ZM116.9 77.0474H114.724L113.576 75.4169L112.428 77.0474H110.252L112.488 73.8469L110.312 70.7672H112.488L113.576 72.3372L114.664 70.7672H116.84L114.664 73.8469L116.9 77.0474Z" fill="#FEFEFE"/>
<path d="M50.7737 50.4773H51.3178V52.8928H50.5924V51.6851L49.5648 52.8928H49.0208V50.4773H49.7462V51.6851L50.7737 50.4773ZM53.4333 50.4773H54.1587V52.8928H53.4333V52.0474H52.5871V52.8928H51.8618V50.4773H52.5871V51.3227H53.4333V50.4773ZM56.6369 50.4773V51.202H55.9116V52.9532H55.1862V51.202H54.4609V50.4773H56.6369ZM57.5436 51.987C57.604 52.2285 57.8458 52.3493 58.148 52.3493C58.3294 52.3493 58.5107 52.2889 58.6316 52.1682L59.236 52.5305C58.9943 52.8928 58.6316 53.0136 58.148 53.0136C57.7249 53.0136 57.4227 52.8928 57.1809 52.6512C56.9391 52.4097 56.8182 52.1078 56.8182 51.7455C56.8182 51.3831 56.9391 51.0812 57.1809 50.8397C57.4227 50.5981 57.7249 50.4773 58.0876 50.4773C58.4502 50.4773 58.7525 50.5981 58.9943 50.8397C59.236 51.0812 59.3569 51.3831 59.3569 51.7455C59.3569 51.8662 59.3569 51.9266 59.3569 52.0474C59.236 51.987 57.5436 51.987 57.5436 51.987ZM57.5436 51.4435H58.5711C58.5107 51.202 58.3294 51.0812 58.0271 51.0812C57.7854 51.0812 57.604 51.202 57.5436 51.4435ZM61.1703 50.417C61.4725 50.417 61.7747 50.5377 62.0165 50.7793C62.2583 51.0208 62.3792 51.3227 62.3792 51.6851C62.3792 52.0474 62.2583 52.3493 62.0165 52.5909C61.7747 52.8324 61.5329 52.9532 61.1703 52.9532C60.868 52.9532 60.6263 52.8324 60.4449 52.6512V53.859H59.7196V50.4773H60.4449V50.7189C60.6263 50.5377 60.868 50.417 61.1703 50.417ZM60.5658 52.1078C60.6867 52.2285 60.8076 52.2889 60.9889 52.2889C61.1703 52.2889 61.2912 52.2285 61.4121 52.1078C61.5329 51.987 61.5934 51.8662 61.5934 51.6851C61.5934 51.5039 61.5329 51.3831 61.4121 51.2624C61.2912 51.1416 61.1703 51.0812 60.9889 51.0812C60.8076 51.0812 60.6867 51.1416 60.5658 51.2624C60.4449 51.3831 60.3845 51.5039 60.3845 51.6851C60.3845 51.8662 60.5054 52.0474 60.5658 52.1078ZM64.4947 50.4773H65.2201V52.8928H64.4947V52.6512C64.3134 52.8324 64.0716 52.9532 63.7694 52.9532C63.4672 52.9532 63.165 52.8324 62.9232 52.5909C62.6814 52.3493 62.5605 52.0474 62.5605 51.6851C62.5605 51.3227 62.6814 51.0208 62.9232 50.7793C63.165 50.5377 63.4067 50.417 63.7694 50.417C64.0716 50.417 64.3134 50.5377 64.4947 50.7189V50.4773ZM63.4672 52.1078C63.5881 52.2285 63.709 52.2889 63.8903 52.2889C64.0716 52.2889 64.1925 52.2285 64.3134 52.1078C64.4343 51.987 64.4947 51.8662 64.4947 51.6851C64.4947 51.5039 64.4343 51.3831 64.3134 51.2624C64.1925 51.1416 64.0716 51.0812 63.8903 51.0812C63.709 51.0812 63.5881 51.1416 63.4672 51.2624C63.3463 51.3831 63.2858 51.5039 63.2858 51.6851C63.2858 51.8662 63.4067 52.0474 63.4672 52.1078ZM68.061 52.8928H67.2148L66.429 51.8058V52.8928H65.7036V50.4773H66.429V51.5643L67.1543 50.4773H68.0005L67.0939 51.6851L68.061 52.8928ZM70.2975 50.4773V51.202H69.5721V52.9532H68.8468V51.202H68.1214V50.4773H70.2975ZM72.413 50.4773H72.957V52.8928H72.2317V51.6851L71.2041 52.8928H70.6601V50.4773H71.3855V51.6851L72.413 50.4773ZM75.2539 51.6851C75.4957 51.8058 75.5562 51.987 75.5562 52.2285C75.5562 52.4097 75.4957 52.5909 75.3144 52.7116C75.1935 52.8324 74.9517 52.8928 74.7099 52.8928H73.3801V50.4773H74.589C74.8308 50.4773 75.0726 50.5377 75.1935 50.6585C75.3144 50.7793 75.4353 50.9604 75.4353 51.1416C75.4957 51.3831 75.4353 51.5643 75.2539 51.6851ZM74.589 51.0812H74.1055V51.4435H74.589C74.7099 51.4435 74.8308 51.3831 74.8308 51.2624C74.8308 51.1416 74.7099 51.0812 74.589 51.0812ZM74.6495 52.2889C74.7704 52.2889 74.8913 52.2285 74.8913 52.1078C74.8913 51.987 74.8308 51.9266 74.6495 51.9266H74.1055V52.2889C74.1659 52.2889 74.6495 52.2889 74.6495 52.2889ZM77.4904 50.4773H78.2157V52.8928H77.4904V52.0474H76.6442V52.8928H75.9188V50.4773H76.6442V51.3227H77.4904V50.4773ZM80.5731 50.4773H81.2984V52.8928H80.5731V52.6512C80.3918 52.8324 80.15 52.9532 79.8478 52.9532C79.5455 52.9532 79.2433 52.8324 79.0015 52.5909C78.7597 52.3493 78.6389 52.0474 78.6389 51.6851C78.6389 51.3227 78.7597 51.0208 79.0015 50.7793C79.2433 50.5377 79.4851 50.417 79.8478 50.417C80.15 50.417 80.3918 50.5377 80.5731 50.7189V50.4773ZM79.5455 52.1078C79.6664 52.2285 79.7873 52.2889 79.9686 52.2889C80.15 52.2889 80.2709 52.2285 80.3918 52.1078C80.5126 51.987 80.5731 51.8662 80.5731 51.6851C80.5731 51.5039 80.5126 51.3831 80.3918 51.2624C80.2709 51.1416 80.15 51.0812 79.9686 51.0812C79.7873 51.0812 79.6664 51.1416 79.5455 51.2624C79.4246 51.3831 79.3642 51.5039 79.3642 51.6851C79.3642 51.8662 79.4246 52.0474 79.5455 52.1078ZM83.8371 50.4773V52.8928H83.1118V52.1682H82.9909L82.5073 52.8928H81.6611L82.2051 52.1078C82.0842 52.0474 81.9633 51.9266 81.8424 51.8058C81.782 51.6851 81.7215 51.5039 81.7215 51.3831C81.7215 51.1416 81.782 50.9604 81.9633 50.7793C82.1447 50.5981 82.326 50.5377 82.6282 50.5377H83.8371V50.4773ZM82.6887 51.1416C82.6282 51.1416 82.5678 51.1416 82.5073 51.202C82.4469 51.2624 82.4469 51.3227 82.4469 51.3831C82.4469 51.4435 82.4469 51.5039 82.5073 51.5643C82.5678 51.6247 82.6282 51.6247 82.6887 51.6247H83.1118V51.1416H82.6887ZM87.0407 50.417C87.3429 50.417 87.6451 50.5377 87.8869 50.7793C88.1287 51.0208 88.2496 51.3227 88.2496 51.6851C88.2496 52.0474 88.1287 52.3493 87.8869 52.5909C87.6451 52.8324 87.4034 52.9532 87.0407 52.9532C86.7385 52.9532 86.4967 52.8324 86.3154 52.6512V53.859H85.59V50.4773H86.3154V50.7189C86.4967 50.5377 86.7385 50.417 87.0407 50.417ZM86.4967 52.1078C86.6176 52.2285 86.7385 52.2889 86.9198 52.2889C87.1011 52.2889 87.222 52.2285 87.3429 52.1078C87.4638 51.987 87.5243 51.8662 87.5243 51.6851C87.5243 51.5039 87.4638 51.3831 87.3429 51.2624C87.222 51.1416 87.1011 51.0812 86.9198 51.0812C86.7385 51.0812 86.6176 51.1416 86.4967 51.2624C86.3758 51.3831 86.3154 51.5039 86.3154 51.6851C86.3154 51.8662 86.3758 52.0474 86.4967 52.1078ZM90.3652 50.4773H91.0905V52.8928H90.3652V52.6512C90.1838 52.8324 89.9421 52.9532 89.6398 52.9532C89.3376 52.9532 89.0354 52.8324 88.7936 52.5909C88.5518 52.3493 88.4309 52.0474 88.4309 51.6851C88.4309 51.3227 88.5518 51.0208 88.7936 50.7793C89.0354 50.5377 89.2772 50.417 89.6398 50.417C89.9421 50.417 90.1838 50.5377 90.3652 50.7189V50.4773ZM89.398 52.1078C89.5189 52.2285 89.6398 52.2889 89.8212 52.2889C90.0025 52.2889 90.1234 52.2285 90.2443 52.1078C90.3652 51.987 90.4256 51.8662 90.4256 51.6851C90.4256 51.5039 90.3652 51.3831 90.2443 51.2624C90.1234 51.1416 90.0025 51.0812 89.8212 51.0812C89.6398 51.0812 89.5189 51.1416 89.398 51.2624C89.2771 51.3831 89.2167 51.5039 89.2167 51.6851C89.2167 51.8662 89.2771 52.0474 89.398 52.1078ZM93.0852 51.6851C93.327 51.8058 93.4479 51.987 93.4479 52.2285C93.4479 52.4097 93.3874 52.5909 93.2061 52.772C93.0247 52.8928 92.783 52.9532 92.4807 52.9532C91.9972 52.9532 91.6345 52.772 91.4532 52.3493L92.0576 51.987C92.1181 52.1682 92.2994 52.2889 92.4807 52.2889C92.6621 52.2889 92.783 52.2285 92.783 52.1078C92.783 51.987 92.7225 51.9266 92.5412 51.9266H92.1785V51.3227H92.4203C92.6016 51.3227 92.6621 51.2624 92.6621 51.1416C92.6621 51.0208 92.6016 50.9604 92.4203 50.9604C92.239 50.9604 92.1181 51.0812 91.9972 51.2624L91.3927 50.9C91.5741 50.5377 91.9367 50.3566 92.3598 50.3566C92.6621 50.3566 92.8434 50.417 93.0247 50.5981C93.2061 50.7189 93.2665 50.9 93.2665 51.1416C93.3874 51.3831 93.2665 51.5643 93.0852 51.6851ZM95.6239 51.6851C95.8656 51.8058 95.9261 51.987 95.9261 52.2285C95.9261 52.4097 95.8657 52.5909 95.6843 52.7116C95.5634 52.8324 95.3216 52.8928 95.0799 52.8928H93.7501V50.4773H94.959C95.2008 50.4773 95.4425 50.5377 95.5634 50.6585C95.6843 50.7793 95.8052 50.9604 95.8052 51.1416C95.8657 51.3831 95.8052 51.5643 95.6239 51.6851ZM94.959 51.0812H94.4754V51.4435H94.959C95.0799 51.4435 95.2008 51.3831 95.2008 51.2624C95.2008 51.1416 95.0799 51.0812 94.959 51.0812ZM95.0194 52.2889C95.1403 52.2889 95.2612 52.2285 95.2612 52.1078C95.2612 51.987 95.2008 51.9266 95.0194 51.9266H94.4754V52.2889C94.5359 52.2889 95.0194 52.2889 95.0194 52.2889ZM98.1021 50.4773H98.6461V52.8928H97.9208V51.6851L96.8932 52.8928H96.3492V50.4773H97.0746V51.6851L98.1021 50.4773ZM100.943 51.6851C101.185 51.8058 101.245 51.987 101.245 52.2285C101.245 52.4097 101.185 52.5909 101.003 52.7116C100.883 52.8324 100.641 52.8928 100.399 52.8928H99.1297V50.4773H100.339C100.58 50.4773 100.822 50.5377 100.943 50.6585C101.064 50.7793 101.185 50.9604 101.185 51.1416C101.185 51.3831 101.124 51.5643 100.943 51.6851ZM100.278 51.0812H99.7946V51.4435H100.278C100.399 51.4435 100.52 51.3831 100.52 51.2624C100.52 51.1416 100.459 51.0812 100.278 51.0812ZM100.339 52.2889C100.459 52.2889 100.58 52.2285 100.58 52.1078C100.58 51.987 100.52 51.9266 100.339 51.9266H99.7946V52.2889C99.855 52.2889 100.339 52.2889 100.339 52.2889ZM103.421 50.4773H104.147V52.8928H103.421V52.6512C103.24 52.8324 102.998 52.9532 102.696 52.9532C102.394 52.9532 102.091 52.8324 101.85 52.5909C101.608 52.3493 101.487 52.0474 101.487 51.6851C101.487 51.3227 101.608 51.0208 101.85 50.7793C102.091 50.5377 102.333 50.417 102.696 50.417C102.998 50.417 103.24 50.5377 103.421 50.7189V50.4773ZM102.394 52.1078C102.515 52.2285 102.635 52.2889 102.817 52.2889C102.998 52.2889 103.119 52.2285 103.24 52.1078C103.361 51.987 103.421 51.8662 103.421 51.6851C103.421 51.5039 103.361 51.3831 103.24 51.2624C103.119 51.1416 102.998 51.0812 102.817 51.0812C102.635 51.0812 102.515 51.1416 102.394 51.2624C102.273 51.3831 102.212 51.5039 102.212 51.6851C102.212 51.8662 102.333 52.0474 102.394 52.1078ZM106.927 50.417C107.29 50.417 107.592 50.5377 107.834 50.7793C108.076 51.0208 108.196 51.3227 108.196 51.6851C108.196 52.0474 108.076 52.3493 107.834 52.5909C107.592 52.8324 107.29 52.9532 106.927 52.9532C106.625 52.9532 106.383 52.8928 106.141 52.7116C105.9 52.5305 105.779 52.2889 105.718 52.0474H105.416V52.8928H104.691V50.4773H105.416V51.3227H105.718C105.779 51.0208 105.96 50.8397 106.141 50.6585C106.383 50.4773 106.625 50.417 106.927 50.417ZM106.564 52.1078C106.685 52.2285 106.806 52.2889 106.988 52.2889C107.169 52.2889 107.29 52.2285 107.411 52.1078C107.532 51.987 107.592 51.8662 107.592 51.6851C107.592 51.5039 107.532 51.3831 107.411 51.2624C107.29 51.1416 107.169 51.0812 106.988 51.0812C106.806 51.0812 106.685 51.1416 106.564 51.2624C106.444 51.3831 106.383 51.5039 106.383 51.6851C106.383 51.8662 106.444 51.987 106.564 52.1078ZM112.125 52.2285H112.428V53.557H111.702V52.8928H108.62V50.4773H109.345V52.2285H109.949V50.4773H110.675V52.2285H111.279V50.4773H112.004L112.125 52.2285ZM114.422 50.4773H115.148V52.8928H114.422V52.6512C114.241 52.8324 113.999 52.9532 113.697 52.9532C113.395 52.9532 113.092 52.8324 112.851 52.5909C112.609 52.3493 112.488 52.0474 112.488 51.6851C112.488 51.3227 112.609 51.0208 112.851 50.7793C113.092 50.5377 113.334 50.417 113.697 50.417C113.999 50.417 114.241 50.5377 114.422 50.7189V50.4773ZM113.455 52.1078C113.576 52.2285 113.697 52.2889 113.878 52.2889C114.06 52.2889 114.18 52.2285 114.301 52.1078C114.422 51.987 114.483 51.8662 114.483 51.6851C114.483 51.5039 114.422 51.3831 114.301 51.2624C114.18 51.1416 114.06 51.0812 113.878 51.0812C113.697 51.0812 113.576 51.1416 113.455 51.2624C113.334 51.3831 113.274 51.5039 113.274 51.6851C113.274 51.8662 113.334 52.0474 113.455 52.1078ZM117.747 50.4773V52.8928H117.021V52.1682H116.9L116.417 52.8928H115.571L116.115 52.1078C115.994 52.0474 115.873 51.9266 115.752 51.8058C115.692 51.6851 115.631 51.5039 115.631 51.3831C115.631 51.1416 115.692 50.9604 115.873 50.7793C116.054 50.5981 116.236 50.5377 116.538 50.5377H117.747V50.4773ZM116.598 51.1416C116.538 51.1416 116.477 51.1416 116.417 51.202C116.356 51.2624 116.356 51.3227 116.356 51.3831C116.356 51.4435 116.356 51.5039 116.417 51.5643C116.477 51.6247 116.538 51.6247 116.598 51.6247H117.021V51.1416H116.598ZM121.253 50.4773H121.797V52.8928H121.071V51.6851L120.044 52.8928H119.5V50.4773H120.225V51.6851L121.253 50.4773ZM123.973 50.4773V51.202H123.005V52.9532H122.28V50.5377H123.973V50.4773ZM125.786 50.417C126.088 50.417 126.39 50.5377 126.632 50.7793C126.874 51.0208 126.995 51.3227 126.995 51.6851C126.995 52.0474 126.874 52.3493 126.632 52.5909C126.39 52.8324 126.149 52.9532 125.786 52.9532C125.484 52.9532 125.242 52.8324 125.061 52.6512V53.859H124.335V50.4773H125.061V50.7189C125.181 50.5377 125.423 50.417 125.786 50.417ZM125.181 52.1078C125.302 52.2285 125.423 52.2889 125.605 52.2889C125.786 52.2889 125.907 52.2285 126.028 52.1078C126.149 51.987 126.209 51.8662 126.209 51.6851C126.209 51.5039 126.149 51.3831 126.028 51.2624C125.907 51.1416 125.786 51.0812 125.605 51.0812C125.423 51.0812 125.302 51.1416 125.181 51.2624C125.061 51.3831 125 51.5039 125 51.6851C125 51.8662 125.121 52.0474 125.181 52.1078ZM129.11 50.4773H129.836V52.8928H129.11V52.6512C128.929 52.8324 128.687 52.9532 128.385 52.9532C128.083 52.9532 127.781 52.8324 127.539 52.5909C127.297 52.3493 127.176 52.0474 127.176 51.6851C127.176 51.3227 127.297 51.0208 127.539 50.7793C127.781 50.5377 128.022 50.417 128.385 50.417C128.687 50.417 128.929 50.5377 129.11 50.7189V50.4773ZM128.083 52.1078C128.204 52.2285 128.325 52.2889 128.506 52.2889C128.687 52.2889 128.808 52.2285 128.929 52.1078C129.05 51.987 129.11 51.8662 129.11 51.6851C129.11 51.5039 129.05 51.3831 128.929 51.2624C128.808 51.1416 128.687 51.0812 128.506 51.0812C128.325 51.0812 128.204 51.1416 128.083 51.2624C127.962 51.3831 127.901 51.5039 127.901 51.6851C127.901 51.8662 128.022 52.0474 128.083 52.1078Z" fill="#FEFEFE"/>
</svg>
